<svg xmlns="http://www.w3.org/2000/svg" width="403" height="380" viewBox="0 0 403 380" fill="#ffffffe8">
<path d="M129.203 60C129.203 26.8629 156.066 0 189.203 0H227.557C229.767 0 231.557 1.79086 231.557 4V320C231.557 353.137 204.695 380 171.557 380H129.203V60Z" />
<path d="M255 0H258C313.228 0 358 44.7715 358 100V153C358 168.464 345.464 181 330 181H283C267.536 181 255 168.464 255 153V0Z" />
<path d="M103 380H100C44.7715 380 0 335.228 0 280V227C0 211.536 12.536 199 28 199H75C90.464 199 103 211.536 103 227V380Z" />
<path d="M254 252.5C254 230.448 254 219.422 259.866 211.851C261.311 209.986 262.986 208.311 264.851 206.866C272.422 201 283.448 201 305.5 201V201C327.552 201 338.578 201 346.149 206.866C348.014 208.311 349.689 209.986 351.134 211.851C357 219.422 357 230.448 357 252.5V328.5C357 350.552 357 361.578 351.134 369.149C349.689 371.014 348.014 372.689 346.149 374.134C338.578 380 327.552 380 305.5 380V380C283.448 380 272.422 380 264.851 374.134C262.986 372.689 261.311 371.014 259.866 369.149C254 361.578 254 350.552 254 328.5V252.5Z" />
</svg>